<?xml version="1.0" standalone="no"?><!DOCTYPE svg PUBLIC "-//W3C//DTD SVG 1.1//EN" "http://www.w3.org/Graphics/SVG/1.1/DTD/svg11.dtd"><svg t="1557129236560" class="icon" style="" viewBox="0 0 1024 1024" version="1.1" xmlns="http://www.w3.org/2000/svg" p-id="804" xmlns:xlink="http://www.w3.org/1999/xlink" width="200" height="200"><defs><style type="text/css"></style></defs><path d="M955 257.1c0 0.1-0.1 0.2-0.1 0.2-0.1-0.2-0.2-0.3-0.3-0.5C908.1 176.4 843.2 113.4 768.2 70c-0.3 176.3-91.9 347.6-255.6 442.1 0 0 0 0.1-0.1 0.1 163.6 94.5 357.7 88.2 510.5 0.4v-0.7c0-92.7-24.8-179.8-68-254.8z" fill="#F0483D" p-id="805"></path><path d="M767.5 954.6c-152.5-88.4-255-253.4-255-442.3-163.8 94.6-255.4 266.1-255.6 442.6C332 998.2 419.1 1023 512 1023h0.2c93-0.1 180.2-24.9 255.3-68.4z" fill="#FFCA00" p-id="806"></path><path d="M256.5 69.4c-77.6 44.9-142.4 109.7-187.2 187.3C25.8 331.8 1 419 1 512v0.5c152.9-88.3 347.5-94.8 511.5-0.2 0-189.3-103-354.6-256-442.9z" fill="#08C3AE" p-id="807"></path><path d="M69.7 768.1c44.9 77.5 109.7 142 187.2 186.8 0.2-176.4 91.8-348 255.6-442.6-163.9-94.6-358.5-88.1-511.5 0.2 0.1 93.1 25.1 180.4 68.7 255.6" fill="#1DF9DE" p-id="808"></path><path d="M512.5 512.3c0 188.9 102.5 353.9 255 442.3 77.5-44.8 142.1-109.3 186.9-186.8 43.5-75.1 68.5-162.2 68.6-255.2-152.8 87.9-346.9 94.2-510.5-0.3z" fill="#FD8C01" p-id="809"></path><path d="M512.4 1h-0.4c-93.1 0-180.3 24.9-255.5 68.4 153 88.3 256 253.6 256 442.9 163.8-94.6 255.4-266.1 255.6-442.6C692.9 26.1 605.6 1.1 512.4 1z" fill="#04A0FC" p-id="810"></path></svg>